<?xml version="1.0" encoding="iso-8859-1"?>
<!-- Generator: Adobe Illustrator 18.1.1, SVG Export Plug-In . SVG Version: 6.00 Build 0)  -->
<svg version="1.1" id="Capa_1" xmlns="http://www.w3.org/2000/svg" xmlns:xlink="http://www.w3.org/1999/xlink" x="0px" y="0px"
	 viewBox="0 0 155.128 155.128" style="enable-background:new 0 0 155.128 155.128;" xml:space="preserve">
<g>
	<path d="M135.031,129.19l12.56,12.56l-12.56,12.56c-0.549,0.543-1.259,0.817-1.969,0.817
		c-0.722,0-1.432-0.274-1.969-0.817c-1.098-1.086-1.098-2.858,0-3.944l6.385-6.396c-36.511-0.167-66.185-29.912-66.208-66.477
		c0-0.012,0-0.024,0-0.036c0-33.605-27.34-60.94-60.94-60.94c-1.545,0-2.792-1.247-2.792-2.792c0-1.539,1.247-2.787,2.798-2.787
		c36.666,0,66.501,29.822,66.513,66.483c0,0.012,0,0.018,0,0.036c0,33.092,26.523,60.051,59.424,60.868l-5.179-5.197
		c-1.104-1.092-1.104-2.858,0-3.944C132.179,128.098,133.951,128.098,135.031,129.19z M10.323,138.403
		c-1.539,0-2.787,1.247-2.787,2.792s1.247,2.792,2.787,2.792c27.06,0,50.313-16.284,60.683-39.536
		c-1.092-2.673-1.993-5.436-2.751-8.252C60.332,120.658,37.383,138.403,10.323,138.403z M136.499,16.571l-5.406,5.424
		c-1.098,1.092-1.098,2.858,0,3.944c0.537,0.543,1.247,0.817,1.969,0.817c0.71,0,1.42-0.274,1.969-0.817l12.56-12.56l-12.56-12.56
		c-1.086-1.092-2.858-1.092-3.938,0c-1.098,1.086-1.098,2.858,0,3.944l6.2,6.2c-26.839,0.203-49.853,16.409-60.17,39.501
		c1.086,2.673,1.981,5.43,2.739,8.246C87.672,34.651,110.024,17.132,136.499,16.571z"/>
</g>
<g>
</g>
<g>
</g>
<g>
</g>
<g>
</g>
<g>
</g>
<g>
</g>
<g>
</g>
<g>
</g>
<g>
</g>
<g>
</g>
<g>
</g>
<g>
</g>
<g>
</g>
<g>
</g>
<g>
</g>
</svg>
